<?xml version="1.0" encoding="UTF-8" standalone="no"?>
<svg
   xmlns:dc="http://purl.org/dc/elements/1.1/"
   xmlns:cc="http://creativecommons.org/ns#"
   xmlns:rdf="http://www.w3.org/1999/02/22-rdf-syntax-ns#"
   xmlns:svg="http://www.w3.org/2000/svg"
   xmlns="http://www.w3.org/2000/svg"
   xmlns:sodipodi="http://sodipodi.sourceforge.net/DTD/sodipodi-0.dtd"
   xmlns:inkscape="http://www.inkscape.org/namespaces/inkscape"
   viewBox="0 0 448 512"
   version="1.1"
   id="svg4179"
   sodipodi:docname="codewars-icon.svg"
   inkscape:version="0.92.3 (2405546, 2018-03-11)">
  <metadata
     id="metadata4185">
    <rdf:RDF>
      <cc:Work
         rdf:about="">
        <dc:format>image/svg+xml</dc:format>
        <dc:type
           rdf:resource="http://purl.org/dc/dcmitype/StillImage" />
        <dc:title></dc:title>
      </cc:Work>
    </rdf:RDF>
  </metadata>
  <defs
     id="defs4183" />
  <sodipodi:namedview
     pagecolor="#ffffff"
     bordercolor="#666666"
     borderopacity="1"
     objecttolerance="10"
     gridtolerance="10"
     guidetolerance="10"
     inkscape:pageopacity="0"
     inkscape:pageshadow="2"
     inkscape:window-width="1470"
     inkscape:window-height="1030"
     id="namedview4181"
     showgrid="false"
     inkscape:zoom="0.4609375"
     inkscape:cx="224"
     inkscape:cy="256"
     inkscape:window-x="0"
     inkscape:window-y="34"
     inkscape:window-maximized="0"
     inkscape:current-layer="svg4179" />
  <path
     inkscape:connector-curvature="0"
     style="fill:#b92f21;stroke-width:14.9333334"
     d="M 410.62184,32.000001 H 37.37813 A 37.482667,37.482667 0 0 0 0,69.378131 V 442.62187 A 37.482667,37.482667 0 0 0 37.37813,480 h 373.24371 a 37.482667,37.482667 0 0 0 37.3782,-37.37813 V 69.378131 a 37.482667,37.482667 0 0 0 -37.3782,-37.37813 z m 8.4822,266.231469 c -1.8368,1.82186 -3.584,3.73333 -6.0928,6.3168 3.584,21.62346 -10.5579,34.4512 -26.0886,46.44266 a 3808.3435,3808.3435 0 0 1 -48.7274,37.184 c -3.6587,2.74774 -8.1238,4.37547 -12.2454,6.5408 -10.1994,28.16427 -14.0522,31.6288 -35.6608,31.136 -5.1669,13.888 -15.441,19.42827 -30.3744,15.51574 -1.0005,-0.2688 -2.5386,-1.13494 -2.8672,-0.8064 -14.5301,14.93333 -31.1957,3.43466 -46.32317,2.44906 -11.2,-0.73173 -22.51947,-7.91466 -32.59947,-14.14186 -8.512,-5.25654 -14.54507,-14.93334 -26.64107,-12.1408 a 2.0906667,2.0906667 0 0 1 -1.49333,-0.29867 c -11.67787,-8.43733 -25.77493,-3.25547 -37.61707,-6.42133 -15.35146,-4.1216 -29.00053,-14.85867 -43.0528,-23.296 -2.1056,-1.2544 -2.53866,-5.45067 -3.584,-8.3328 -0.73173,-1.94134 -0.74666,-5.34614 -1.86666,-5.7344 C 48.5184,367.4176 49.08587,352.8128 44.00853,341.13493 39.2896,330.2784 36.0192,320.5568 42.00747,309.28213 43.4112,306.624 43.35147,302.15893 42.1568,299.2768 34.42133,280.78933 34.24213,280.84907 36.1536,262.46613 20.27947,248.93653 17.93493,238.6624 30.83733,222.3552 25.6704,210.64747 23.072,198.82027 37.184,190.368 c 1.04533,-0.64213 1.40373,-2.688 1.792,-4.1664 4.59947,-18.06933 18.24853,-29.4336 32.58453,-38.31893 13.14134,-8.1536 29.12,-10.18454 37.78134,-26.62614 3.24053,-6.1376 13.29066,-9.73653 15.29173,-19.09973 0.47787,-2.21013 2.94187,-4.37547 5.0176,-5.7792 10.3488,-6.914129 22.42987,-10.483199 31.88267,-19.831469 3.97226,-3.91253 15.0528,-0.64213 25.56586,-0.64213 13.9776,-17.45707 33.16691,-3.2704 50.89281,-1.00053 8.3776,1.06026 15.8741,8.52693 23.968,12.7232 3.5541,1.85173 7.5115,3.0464 11.424,4.032 2.464,0.59733 5.4955,-0.5376 7.7056,0.41813 12.4245,5.390929 24.7893,8.900269 38.3189,3.688529 1.8518,-0.7168 6.0182,0.70187 7.0784,2.38934 8.6912,13.888 26.2827,9.408 36.9302,18.42773 3.0613,2.5984 3.5541,8.21333 5.6298,13.49973 10.1696,3.33014 21.28,7.33227 18.592,22.56427 10.9014,6.72 3.7632,20.90667 11.9019,28.77653 -8.5867,18.7712 11.424,34.4064 5.8091,54.10347 2.6581,1.8368 6.6752,3.52427 9.0346,6.52587 3.3899,4.3008 9.1094,11.76746 7.6907,14.03733 -8.7061,13.91787 10.1547,29.22453 -2.9717,42.14187 z M 219.62454,128.20053 c -20.68267,7.6608 -20.92161,8.0192 -16.30721,26.5664 -10.05013,4.48 -16.128,11.75254 -10.82666,23.968 a 6.6154667,6.6154667 0 0 1 -0.8064,5.71947 c -4.76374,5.58507 -3.8528,10.752 -1.3888,17.2032 1.344,3.55413 -1.31414,8.66133 -2.1504,12.992 4.40533,6.07787 9.19893,11.872 12.97706,18.2784 1.41867,2.38933 1.77707,7.81013 0.3136,8.96 -2.24,1.792 -7.01866,2.3744 -9.7216,1.19467 -10.82666,-4.71894 -22.20586,-9.03467 -31.56906,-15.9488 -7.31734,-5.4208 -12.4544,-14.12694 -17.66614,-21.952 -3.808,-5.7344 -6.16746,-12.4096 -10.58773,-21.5936 0.9856,-1.94134 3.55413,-6.7648 5.85387,-11.70774 1.6128,-3.4944 4.928,-7.89973 3.91253,-10.5728 -2.92693,-7.86986 2.688,-13.91786 2.80747,-20.32426 0.32853,-16.60587 18.66666,-19.96587 21.9968,-33.58507 17.7408,-7.81013 34.15253,-20.682669 55.61177,-14.321069 3.3301,1.00054 6.9589,0.92587 10.0053,1.299199 3.8677,7.82507 -0.2987,12.1408 -4.2112,17.2928 -3.584,4.704 -5.4507,10.72214 -8.2432,16.5312 z m 128.5013,14.4704 20.6976,18.3232 5.4955,24.2816 -3.1509,2.47894 c -13.7835,-8.98987 -31.2704,0.9856 -44.591,-10.69227 -1.0154,-0.896 -3.0314,-1.1648 -4.48,-0.9408 -13.3354,2.03093 -27.328,2.31467 -39.8272,6.79467 -23.5349,8.45226 -45.0986,20.9216 -60.1066,45.12853 -10.30404,-10.91627 -10.18457,-22.1312 -7.84,-33.22667 2.2848,-10.72213 6.0928,-21.11573 9.4976,-32.55466 13.0218,0.14933 12.4394,-12.06614 15.9936,-19.29387 28.9706,-11.14027 56.8362,-23.28107 89.6149,-11.7376 3.1061,7.2128 9.1243,14.66453 18.6965,11.43893 z M 222.79044,269.5296 c 11.5733,25.02827 3.2106,46.96533 -7.2278,67.648 -4.45011,5.85387 -8.94504,11.70773 -13.35037,17.62133 -1.23947,1.64267 -2.26987,4.928 -3.38987,4.928 -15.57547,-0.0299 -24.89387,15.47094 -41.3056,15.30667 -13.15627,-0.1344 -25.68533,2.3744 -39.17013,-2.21013 -15.73974,-5.376 -28.32854,-13.51467 -40.06614,-25.1328 -9.61706,-9.48267 -12.1408,-18.75627 -8.67626,-31.10614 h 31.56906 c 7.55627,9.2288 18.26347,14.27627 32.0768,6.048 2.26987,-1.344 5.89867,-0.29866 8.85547,-0.672 6.0032,-0.74666 12.03627,-1.344 17.92,-2.688 5.7792,-1.32906 11.39413,-3.47946 17.08373,-5.2416 1.95627,-0.61226 4.50987,-0.5824 5.824,-1.8368 A 743.47093,743.47093 0 0 0 207.2,287.79307 c 4.94293,-5.22667 9.39304,-10.96107 15.59044,-18.26347 z M 95.1104,158.84373 c -1.4784,12.9472 0.11947,23.08694 12.30507,29.3888 -4.77867,13.44 -5.67467,25.2672 10.85653,30.0608 0.92587,0.2688 2.34453,1.04534 2.40427,1.68747 1.22453,14.75413 14.17173,16.3072 23.63946,22.81813 15.12747,10.4384 30.24,17.09867 48.80214,14.88854 3.03146,-0.3584 6.30186,1.17973 9.75146,1.89653 -1.8816,14.88853 -13.18613,21.89227 -22.38506,25.16267 -17.45707,6.2272 -35.168,17.6512 -55.62667,7.67573 -3.91253,-1.89653 -9.96053,0.5824 -13.41013,0.896 -21.33974,-9.91573 -31.584,-30.464 -49.48907,-43.68 0.8512,-9.25867 7.73547,-20.1152 -4.00213,-26.35733 2.88213,-28.25387 12.992,-50.3552 37.15413,-64.43734 z m 259.88484,189.9072 c -2.0011,-5.34613 -5.1222,-9.42293 -4.48,-12.78293 1.9712,-10.27413 -2.0608,-17.08373 -10.9312,-22.69867 4.0768,-12.544 -0.2091,-21.74293 -11.439,-28.41813 -2.5386,-1.50827 -4.689,-5.45067 -5.0325,-8.512 -1.0155,-8.67627 -5.5851,-12.87253 -13.9477,-13.91787 -2.479,-0.29866 -5.9136,-0.7168 -7.1083,-2.38933 -12.0661,-16.68053 -30.7776,-16.38187 -48.2048,-19.41333 -4.1963,-0.7168 -8.4224,-1.2992 -13.0667,-2.00107 1.2843,-14.97813 13.3056,-19.32373 21.1307,-22.20587 17.8901,-6.57066 37.3931,-15.5456 56.5525,-7.392 15.232,6.51094 34.0032,7.616 44.0832,24.69974 3.0912,5.2416 10.1995,8.12373 15.456,12.06613 l 9.6022,29.53813 v 30.70294 c -8.1835,12.37973 -14.4256,29.50826 -32.6144,42.70933 z M 177.5424,401.1072 c 29.2096,0.4032 32.33067,-1.49333 38.88644,-22.99733 12.4394,-4.13654 23.1317,-10.63254 23.281,-26.55147 0.015,-1.94133 3.0166,-3.86773 4.6294,-5.79413 1.9712,-2.34454 5.3461,-4.50987 5.6597,-7.06347 2.2848,-18.96533 6.3765,-38.05013 -0.2688,-56.9856 -2.6283,-7.49653 -5.5851,-14.90347 -9.5125,-25.34187 7.6458,0.7616 12.7232,0.29867 17.0538,1.8816 18.368,6.74987 33.1072,19.0848 44.6059,34.37654 5.4208,7.19786 6.8544,17.3824 10.9611,28.59733 -4.5248,6.66027 -6.6304,16.3072 1.7472,26.08853 -11.0358,8.96 -16.7702,19.45814 -14.9931,31.65867 l -26.88,25.8048 -23.4005,10.40853 c -7.392,1.40374 -14.6198,3.43467 -21.952,3.9424 -7.0635,0.50774 -15.62031,1.792 -21.04111,-1.44853 -9.0048,-5.36107 -23.44533,-1.31413 -28.77653,-16.576 z"
     id="path3961" />
</svg>
